<?xml version="1.0" encoding="utf-8"?>
<!-- Generator: Adobe Illustrator 24.0.0, SVG Export Plug-In . SVG Version: 6.00 Build 0)  -->
<svg version="1.1" id="Layer_1" xmlns="http://www.w3.org/2000/svg" xmlns:xlink="http://www.w3.org/1999/xlink" x="0px" y="0px"
	 viewBox="0 0 512 512" style="enable-background:new 0 0 512 512;" xml:space="preserve">
<style type="text/css">
	.st0{fill:#333333;}
	.st1{filter:url(#Adobe_OpacityMaskFilter);}
	.st2{fill:#FFFFFF;}
	.st3{mask:url(#mask-2_2_);fill:#333333;}
</style>
<g id="SCUP">
	<g id="SCUP-_x2013_-Primary" transform="translate(0.000000, -1.000000)">
		<path id="Fill-1" class="st0" d="M286.8,238.7c19.4-36,30.2-75.5,9-102.6c1,6.8,1.2,12.6,1.2,12.6
			c25.1,37.1-22.9,107.4-22.9,107.4C278.8,250.1,283,244.3,286.8,238.7"/>
		<path id="Fill-3" class="st0" d="M302.3,210.7c24.5-55.6-4.2-82.6-8.8-86.5c0.5,2.3,0.9,4.4,1.3,6.5c0.3,1.2,0.5,2.4,0.7,3.6
			c22.6,27.1,11.6,65.9-3.2,95.7c0.7-1.2,1.8-2.9,1.8-2.9c46.4-73-2.6-110.7-2.6-110.7c0.6,1.5,1.1,4,1.6,5.7
			C298.2,127,329.1,156.1,302.3,210.7"/>
		<path id="Fill-5" class="st0" d="M203.2,136.1c-21.2,27.1-10.4,66.5,9,102.6c3.7,5.6,7.9,11.4,12.7,17.5c0,0-48-70.3-22.9-107.4
			C201.9,148.8,202.1,142.9,203.2,136.1"/>
		<path id="Fill-7" class="st0" d="M206.6,230c-14.8-29.9-25.8-68.6-3.2-95.7c0.2-1.2,0.4-2.4,0.7-3.6c0.4-2.1,0.8-4.2,1.3-6.5
			c-4.7,3.9-33.4,30.9-8.8,86.5c-26.8-54.6,4.2-83.7,9.3-88.6c0.5-1.7,1-4.3,1.6-5.7c0,0-49,37.7-2.6,110.7
			C204.9,227.1,205.9,228.8,206.6,230"/>
		<g id="Group-11" transform="translate(34.000000, 0.553000)">
			<g id="Clip-10">
			</g>
			<defs>
				<filter id="Adobe_OpacityMaskFilter" filterUnits="userSpaceOnUse" x="171.7" y="83.6" width="87.3" height="184.6">
					<feColorMatrix  type="matrix" values="1 0 0 0 0  0 1 0 0 0  0 0 1 0 0  0 0 0 1 0"/>
				</filter>
			</defs>
			<mask maskUnits="userSpaceOnUse" x="171.7" y="83.6" width="87.3" height="184.6" id="mask-2_2_">
				<g id="XMLID_50_" class="st1">
					<polygon id="path-1_2_" class="st2" points="171.7,83.6 258.9,83.6 258.9,268.1 171.7,268.1 					"/>
				</g>
			</mask>
			<path id="Fill-9" class="st3" d="M197.6,259.2c-19.4-22.5-20.6-78.9-20.6-78.9c5.5,80.9,33,87.9,38.3,87.9h0h0
				c5.3,0,32.8-7,38.3-87.9c0,0-1.2,56.4-20.6,78.9c15.2-16.2,25.9-52.7,25.9-95.1c0-32.3-6.2-61.5-15.9-80.6l-9.5,0
				c9,16.2,15,43.4,15,73.7c0,25-3.6,47.6-9.6,63.9l1.8-2.8c-5.6,20.4-15.8,31.9-25.5,31.9c-9.6-0.1-19.8-11.5-25.5-31.9l1.8,2.8
				c-6-16.3-9.6-38.9-9.6-63.9c0-30.3,6-57.5,15-73.7l-9.5,0c-9.7,19.1-15.9,48.2-15.9,80.6C171.7,206.5,182.4,243,197.6,259.2"/>
		</g>
		<path id="Fill-12" class="st0" d="M249.2,250L249.2,250c0,0,0.1,0,0.1,0c9.5-0.1,19.2-13.2,23.1-27c-5.6,14.6-13.7,23.6-23.2,23.7
			c-9.5,0-17.6-9.1-23.2-23.7C230,236.8,239.8,249.8,249.2,250"/>
		<path id="Fill-14" class="st0" d="M142.1,420.1c0,0-6.1-2.8-8.8-4.7c-1-0.6-1.6-1.4-1.4-2.1c0.4-1.2,2-1.5,6.6-1.5
			c1.3,0,11.8,0.7,11.8,0.7v-6.2c0,0-8.5-0.9-11.8-0.9c-9.6,0-14.1,2.7-14.1,8.6c0,4.6,3.4,6.3,8.2,8.8l5.2,2.7
			c4.8,2.5,5.8,3.8,5.9,5.3c0.1,1.3-0.6,4.4-4.3,5c-3.2,0.6-14.6-0.5-14.6-0.5v6.2c0,0,8.7,0.9,11.8,0.9c15,0,14.8-10,14.8-11.8
			C151.3,426.3,148.8,423.5,142.1,420.1"/>
		<path id="Fill-16" class="st0" d="M175.7,411.1v15.3c0,2.8-0.2,4.8-0.7,6c-0.4,1.1-1.2,2-2.3,2.6c-0.3,0.2-1.8,1-4.6,1
			s-4.3-0.8-4.6-1c-1.1-0.6-1.8-1.5-2.3-2.6c-0.5-1.2-0.7-3.3-0.7-6v-15.3c0-2.8-2.5-5.1-5.6-5.2h-1.2v20.5c0,3.7,0.5,6.7,1.4,8.9
			c0.9,2.3,2.6,4.1,4.8,5.3c1.7,0.9,3.8,1.5,6.2,1.7c0.6,0.1,1.9,0.1,1.9,0.1h0h0c0,0,1.3,0,1.9-0.1c2.5-0.2,4.6-0.8,6.2-1.7
			c2.2-1.2,3.8-3,4.8-5.3c0.9-2.2,1.4-5.2,1.4-8.9v-20.5h-1.2C178.2,406,175.7,408.3,175.7,411.1"/>
		<path id="Fill-18" class="st0" d="M209.7,408c-1.3-0.9-2.8-1.5-4.6-1.8c-1.2-0.2-3-0.3-5.3-0.3h-7.5v0l-1.5,0c-5,0-5,4-5,6.1v29.8
			h6.7l0-29.6l0.3,0h7.2c2.4,0,3.4,0.1,3.8,0.3c0.9,0.2,1.6,0.8,2.2,1.5c0.6,0.8,0.8,1.8,0.8,2.9c0,1.6-0.5,2.8-1.4,3.6
			c-1,0.9-3.3,1.3-6.6,1.3c-3,0-4.8,2.5-5.1,4.9l-0.1,1.3l6.4,0c5.1,0,8.7-1.1,10.7-3.3c2-2.2,3-4.9,3-8c0-1.8-0.4-3.6-1.1-5.1
			C212,410.1,211,408.9,209.7,408"/>
		<path id="Fill-20" class="st0" d="M223.2,412.2h17.7v-6.3h-18.3v0l-1.1,0c-5,0-5,4-5,6.1v23.7c0,2.1,0,6.1,5,6.1l1.8,0v0l17.7,0
			v-6.3h-17.7v-9.4h17.7v-6.2h-17.7V412.2z"/>
		<path id="Fill-22" class="st0" d="M271.2,435.5c-2.6-0.4-9.2-1.9-11.5-7.4c4.5-0.2,7.7-1.3,9.5-3.3c2-2.2,3-4.9,3-8
			c0-1.8-0.4-3.6-1.1-5.1c-0.8-1.6-1.8-2.8-3.1-3.7c-1.2-0.9-2.8-1.5-4.6-1.8c-1.2-0.2-3-0.3-5.3-0.3h-7.5v0l-1.5,0c-5,0-5,4-5,6.1
			v29.8h6.7l0-29.6l0.3,0h7.2c2.4,0,3.4,0.1,3.8,0.3c0.9,0.2,1.6,0.8,2.2,1.5c0.6,0.8,0.8,1.8,0.8,2.9c0,1.6-0.5,2.8-1.4,3.6
			c-2,1.9-11.7,1.5-11.7,1.5c-0.9,7.2,4.4,19.7,21.4,19.7h3.7l0.2-0.8C277.7,441,273.9,439.6,271.2,435.5"/>
		<path id="Fill-24" class="st0" d="M285.9,411.2c-3.1,3.6-4.7,8-4.7,13.1c0,3,0.6,5.8,1.8,8.3c1.2,2.5,2.7,4.4,4.6,5.8
			c1.9,1.4,4.4,2.3,7.2,2.8c2.1,0.4,5.1,0.5,9,0.5h7.1v-6.2h-7.7c-3.7,0-6.2-0.2-7.5-0.6c-2.2-0.6-4-1.9-5.3-3.9c-1.3-2-2-4.3-2-7
			c0-3.8,1.1-6.7,3.4-8.8c2.2-2,5.7-2.6,10.6-2.7h0v0h3.3c2.8,0,5.1-2.5,5.2-5.6v-1.2h-8.5C294.5,405.9,289,407.7,285.9,411.2"/>
		<path id="Fill-26" class="st0" d="M336.4,411.1v15.3c0,2.8-0.2,4.8-0.7,6c-0.4,1.1-1.2,2-2.3,2.6c-0.3,0.2-1.8,1-4.6,1
			c-2.8,0-4.3-0.8-4.6-1c-1.1-0.6-1.8-1.5-2.3-2.6c-0.5-1.2-0.7-3.3-0.7-6v-15.3c0-2.8-2.5-5.1-5.6-5.2h-1.2v20.5
			c0,3.7,0.5,6.7,1.4,8.9c0.9,2.3,2.6,4.1,4.8,5.3c1.7,0.9,3.8,1.5,6.2,1.7c0.6,0.1,1.9,0.1,1.9,0.1h0h0c0,0,1.3,0,1.9-0.1
			c2.5-0.2,4.6-0.8,6.2-1.7c2.2-1.2,3.8-3,4.8-5.3c0.9-2.2,1.4-5.2,1.4-8.9v-20.5H342C338.9,406,336.4,408.3,336.4,411.1"/>
		<path id="Fill-28" class="st0" d="M373.5,411.7c-0.8-1.6-1.8-2.8-3.1-3.7c-1.3-0.9-2.8-1.5-4.6-1.8c-1.2-0.2-3-0.3-5.3-0.3h-7.5v0
			l-1.5,0c-5,0-5,4-5,6.1v29.8h6.7l0-29.6l0.3,0h7.2c2.4,0,3.4,0.1,3.8,0.3c0.9,0.2,1.6,0.8,2.2,1.5c0.6,0.8,0.8,1.8,0.8,2.9
			c0,1.6-0.5,2.8-1.4,3.6c-1,0.9-3.3,1.3-6.6,1.3c-3,0-4.8,2.5-5.1,4.9l-0.1,1.3l6.4,0c5.1,0,8.7-1.1,10.7-3.3c2-2.2,3-4.9,3-8
			C374.6,414.9,374.2,413.2,373.5,411.7"/>
		<polygon id="Fill-30" class="st0" points="374.8,406.7 374.8,405.9 380.2,405.9 380.2,406.7 378,406.7 378,412.7 377.1,412.7 
			377.1,406.7 		"/>
		<polygon id="Fill-32" class="st0" points="382.2,405.9 384.3,411.6 386.5,405.9 387.7,405.9 387.7,412.7 386.9,412.7 386.9,407.1 
			386.8,407.1 384.7,412.7 384,412.7 381.9,407.1 381.8,407.1 381.8,412.7 381,412.7 381,405.9 		"/>
		<path id="Fill-34" class="st0" d="M192.7,366.2l-2.3-2.2c14.9-15.3,35.8-24.8,58.8-24.8c23,0,43.9,9.5,58.8,24.8l-2.3,2.2
			c-14.3-14.7-34.4-23.8-56.5-23.8C227,342.4,207,351.5,192.7,366.2L192.7,366.2z M215.2,391.6l-2.4-2.1
			c8.9-10.1,21.9-16.5,36.4-16.5c14.5,0,27.6,6.4,36.4,16.5l-2.4,2.1c-8.3-9.5-20.5-15.4-34-15.4
			C235.6,376.2,223.5,382.1,215.2,391.6L215.2,391.6z M294.4,362.5c0.9,0.7,0.9,1.5,0.6,2.2l-5.9,20.6l-3.4-3.1l1.2-4l-4-3l3.4-2.2
			l1.7,1.3l2.1-7.1l-12.9,8.4l-3.8-2.1l17.9-11.7c0.7-0.4,1.3-0.7,2.3,0.1L294.4,362.5z M211.5,377.3c-1.5-0.2-2.4-0.8-3.8-2.5
			l-7.1-8.8l-3.2,2.6l7.8,9.6c1.6,2,3.5,3.1,5.7,3.3c2.4,0.2,4.6-0.5,6.8-2.3c2.2-1.8,3.3-3.7,3.6-6.2c0.3-2.2-0.4-4.2-2-6.2
			l-7.8-9.6l-3.2,2.6l7.1,8.8c1.4,1.7,1.8,2.7,1.7,4.2c-0.1,1.2-0.8,2.4-1.9,3.3C214.1,377,212.7,377.4,211.5,377.3L211.5,377.3z
			 M242.3,351.3l-0.8-3.8l-12.6,2.6c-0.9,0.2-1.4,0.9-1.2,1.8l2.6,13c0.9,4.4,4.1,5.4,7.7,4.7l7.7-1.5l-0.8-3.8l-7.4,1.5
			c-1.9,0.4-2.8,0-3.2-2.1l-0.4-1.9l9.3-1.9l-0.8-3.7l-9.3,1.9l-0.9-4.6L242.3,351.3z M261.8,361l9.1,2.4l1-3.7l-9.1-2.4l0.5-1.9
			c0.6-2.1,1.4-2.4,3.3-1.9l7.3,1.9l1-3.7l-7.6-2c-3.5-0.9-6.8-0.1-7.9,4.3l-3.3,12.8c-0.3,0.9,0.2,1.6,1.1,1.9l2.5,0.6L261.8,361z"
			/>
		<path id="Fill-36" class="st0" d="M305.6,329.4c-13-7-21.6-8.9-31.7-9.6c13.4,3,35.3,10.1,45.4,26.4
			C314.8,337.6,311.9,334,305.6,329.4"/>
		<path id="Fill-38" class="st0" d="M229.8,312.3c-17.5,4.5-35.5,10.7-55.3,44.3c0,0,5-6.6,14.8-13.9
			C202.2,323.7,219.9,315.6,229.8,312.3"/>
		<path id="Fill-40" class="st0" d="M253,304.2c6.5-1.4,19.6-6.4-1.4-23.8c5.7,5.7,8.2,10.9,7.6,15.4
			C258.7,300.1,255.5,302.8,253,304.2"/>
		<path id="Fill-42" class="st0" d="M320.3,348.3l-0.6-1.2c-10.1-16.2-33.6-24-46-26.8l-5.3-1.4c-0.6-0.1,8.5,0.4,7.9,0.3
			c-9.7-1.8-22.8-4.2-30.9-9.1c-3.5-2.1-5.5-5.1-5.8-8.8c0-0.4-0.1-0.8-0.1-1.3c0-5.1,3-11.6,9.1-18.4c0.1,0.1,0.2,0.3,0.3,0.4
			c-7.4,8.9-13.1,21.2-3,27.3c16.4,9.9,37.7,6.7,58.2,18.4c-21.7-16.9-50.6-14.2-56.9-26.3c-3.6-7-1.6-13.6,2-18.9
			c0.1,0.2,0.3,0.5,0.4,0.6c3.8,6.1,5.7,13.6,0.7,21c0.1,0.1,0.3,0.2,0.4,0.4c3.4-1.5,15.3-8.1,0.6-23.2l-0.6-0.6c0,0,0,0-0.1-0.1
			c1.2-1.5,2.4-2.8,3.6-4.1c-1.3,1.1-2.6,2.4-3.8,3.8c-0.1-0.1-0.2-0.2-0.3-0.3c3.2-3.3,7.2-6.6,11.9-9.8c-4.9,3.3-9,6.4-12.5,9.3
			c-3.3-3.1-7.6-6.5-13.3-10.2c0,0,6.8,4.7,11.8,11.5c-33,28.6-1.2,39.4,26,44.9c32.4,6.6,49.5,30.3,49.5,30.3
			C322.3,352.4,321.9,351.3,320.3,348.3"/>
		<path id="Fill-44" class="st0" d="M236.6,311c-0.1-0.1-0.2-0.2-0.3-0.4c-0.8,0.2-1.7,0.4-2.5,0.6c-11.7,3.6-30.2,13.7-42.2,29.7
			c4.2-2.9,9.1-5.9,14.7-8.6C221,315.6,233.3,311.8,236.6,311"/>
		<path id="Fill-46" class="st0" d="M208.4,331.5c5.1-2.3,10.6-4.3,16.8-5.8c8.3-2,16.5-3.5,23.6-6.6c-4.7-2-8.7-4.4-11.4-7.2
			C235.4,312.2,223.3,315.2,208.4,331.5"/>
		<path id="Fill-48" class="st0" d="M261.4,309.8c3.5-4,4.7-8.8,2.6-14.4c0,0.2,0.1,0.5,0.1,0.7c0,6.7-8.5,8.7-12.2,9.3
			C254.3,307.2,257.6,308.6,261.4,309.8"/>
	</g>
</g>
</svg>
