<?xml version="1.0" encoding="UTF-8" standalone="no"?>
<svg
   xmlns:dc="http://purl.org/dc/elements/1.1/"
   xmlns:cc="http://creativecommons.org/ns#"
   xmlns:rdf="http://www.w3.org/1999/02/22-rdf-syntax-ns#"
   xmlns:svg="http://www.w3.org/2000/svg"
   xmlns="http://www.w3.org/2000/svg"
   viewBox="0 0 90 94"
   height="94"
   width="90"
   xml:space="preserve"
   id="svg2"
   version="1.1"><metadata
     id="metadata8"><rdf:RDF><cc:Work
         rdf:about=""><dc:format>image/svg+xml</dc:format><dc:type
           rdf:resource="http://purl.org/dc/dcmitype/StillImage" /></cc:Work></rdf:RDF></metadata><defs
     id="defs6"><clipPath
       id="clipPath18"
       clipPathUnits="userSpaceOnUse"><path
         id="path16"
         d="M 0,66 H 67.5 V 0 H 0 Z" /></clipPath></defs><g
     transform="matrix(1.3333333,0,0,-1.3333333,0,88)"
     id="g10"><g
       id="g12"><g
         clip-path="url(#clipPath18)"
         id="g14"><g
           transform="translate(33.1426,32.2993)"
           id="g20"><path
             id="path22"
             style="fill:#000000;fill-opacity:1;fill-rule:nonzero;stroke:none"
             d="m 0,0 c -2.872,-0.194 -5.585,-1.292 -7.743,-3.141 -0.377,-0.322 -0.886,-0.811 -0.886,-0.845 0,-0.041 0.348,-0.391 0.389,-0.391 0.016,0 0.076,0.047 0.134,0.108 0.058,0.06 0.211,0.207 0.341,0.325 3.733,3.459 9.113,4.361 13.771,2.307 1.379,-0.609 2.653,-1.471 3.785,-2.565 0.102,-0.096 0.192,-0.175 0.202,-0.175 0.026,0 0.4,0.354 0.402,0.379 0,0.028 -0.491,0.506 -0.776,0.756 -1.142,1 -2.48,1.818 -3.84,2.347 C 4.468,-0.383 3.124,-0.087 1.716,0.002 1.357,0.025 0.353,0.023 0,0" /></g><g
           transform="translate(31.6982,30.7764)"
           id="g24"><path
             id="path26"
             style="fill:#000000;fill-opacity:1;fill-rule:nonzero;stroke:none"
             d="m 0,0 c -0.543,-0.112 -1.019,-0.217 -1.054,-0.232 -0.145,-0.071 -0.151,-0.183 -0.034,-0.756 0.312,-1.524 0.368,-1.787 0.401,-1.88 0.052,-0.138 0.184,-0.313 0.304,-0.4 0.161,-0.118 0.287,-0.155 0.557,-0.157 0.212,0 0.285,0.01 0.786,0.112 0.882,0.179 0.814,0.16 0.814,0.232 C 1.772,-3.006 1.669,-2.51 1.65,-2.49 1.643,-2.482 1.342,-2.537 0.982,-2.608 0.624,-2.681 0.296,-2.738 0.258,-2.738 c -0.126,0 -0.202,0.05 -0.254,0.172 -0.047,0.101 -0.122,0.422 -0.108,0.44 0.008,0.006 1.426,0.299 1.456,0.299 0.007,0 0.015,0.02 0.015,0.048 0,0.056 -0.113,0.592 -0.126,0.606 -0.006,0.006 -0.338,-0.054 -0.737,-0.136 -0.522,-0.104 -0.732,-0.139 -0.745,-0.124 -0.023,0.028 -0.144,0.632 -0.13,0.646 0.008,0.008 1.526,0.325 1.599,0.335 0.013,0.002 0,0.109 -0.034,0.262 C 1.173,-0.093 1.146,0.034 1.134,0.097 1.112,0.203 1.111,0.207 1.051,0.205 1.016,0.203 0.545,0.11 0,0" /></g><g
           transform="translate(36.3311,30.6641)"
           id="g28"><path
             id="path30"
             style="fill:#000000;fill-opacity:1;fill-rule:nonzero;stroke:none"
             d="m 0,0 c -0.293,-0.064 -0.511,-0.254 -0.627,-0.549 -0.079,-0.197 -0.602,-2.25 -0.602,-2.354 0.001,-0.099 0.021,-0.142 0.1,-0.203 0.033,-0.026 0.441,-0.14 0.498,-0.14 0.026,0 0.067,0.132 0.196,0.632 0.091,0.348 0.173,0.645 0.185,0.658 0.015,0.021 0.152,-0.009 0.707,-0.156 0.379,-0.101 0.706,-0.185 0.728,-0.185 0.035,0 0.048,0.037 0.112,0.287 0.072,0.281 0.086,0.372 0.058,0.372 -0.035,0 -1.406,0.367 -1.417,0.378 -0.018,0.018 0.066,0.329 0.114,0.432 0.049,0.099 0.135,0.159 0.231,0.159 0.036,0 0.351,-0.073 0.696,-0.165 0.347,-0.091 0.654,-0.164 0.681,-0.164 0.05,0 0.054,0.008 0.134,0.311 0.044,0.173 0.073,0.321 0.065,0.331 C 1.836,-0.336 0.585,-0.012 0.439,0.01 0.271,0.034 0.144,0.03 0,0" /></g><g
           transform="translate(27.8853,29.3984)"
           id="g32"><path
             id="path34"
             style="fill:#000000;fill-opacity:1;fill-rule:nonzero;stroke:none"
             d="m 0,0 c -0.167,-0.11 -0.483,-0.384 -0.483,-0.415 0,-0.02 0.26,-0.356 0.578,-0.748 0.318,-0.392 0.611,-0.756 0.65,-0.81 0.193,-0.269 0.229,-0.49 0.114,-0.73 C 0.78,-2.874 0.615,-3.039 0.435,-3.126 0.316,-3.186 0.287,-3.191 0.138,-3.191 c -0.196,0 -0.33,0.051 -0.477,0.187 -0.051,0.045 -0.37,0.427 -0.712,0.845 -0.359,0.442 -0.632,0.76 -0.652,0.76 -0.042,0 -0.535,-0.402 -0.535,-0.434 0,-0.047 1.286,-1.612 1.449,-1.766 0.168,-0.159 0.349,-0.259 0.559,-0.312 0.096,-0.025 0.184,-0.028 0.377,-0.021 0.216,0.008 0.276,0.018 0.41,0.066 0.411,0.149 0.797,0.484 0.977,0.852 0.099,0.206 0.142,0.425 0.13,0.675 -0.012,0.258 -0.068,0.434 -0.206,0.64 C 1.371,-1.567 0.134,-0.037 0.078,0.01 0.054,0.029 0.039,0.027 0,0" /></g><g
           transform="translate(40.9092,28.7354)"
           id="g36"><path
             id="path38"
             style="fill:#000000;fill-opacity:1;fill-rule:nonzero;stroke:none"
             d="m 0,0 c -0.087,-0.029 -3.006,-1.928 -3.012,-1.963 -0.008,-0.033 0.565,-0.362 0.631,-0.362 0.023,0 0.479,0.283 1.012,0.63 0.535,0.346 0.981,0.63 0.993,0.63 0.012,0 0.018,-0.016 0.014,-0.034 -0.063,-0.232 -0.258,-0.891 -0.27,-0.905 -0.008,-0.009 -0.06,0.02 -0.116,0.065 -0.055,0.043 -0.116,0.079 -0.136,0.079 -0.049,0 -0.58,-0.347 -0.58,-0.38 0,-0.021 0.335,-0.294 0.58,-0.471 l 0.044,-0.035 -0.091,-0.317 -0.09,-0.318 0.124,-0.114 c 0.352,-0.328 0.443,-0.403 0.466,-0.394 0.016,0.006 0.034,0.035 0.039,0.066 0.006,0.029 0.227,0.801 0.489,1.711 0.534,1.852 0.516,1.767 0.386,1.901 C 0.309,-0.032 0.136,0.043 0,0" /></g><g
           transform="translate(33.4932,26.875)"
           id="g40"><path
             id="path42"
             style="fill:#000000;fill-opacity:1;fill-rule:nonzero;stroke:none"
             d="m 0,0 c -1.692,-0.118 -3.236,-0.742 -4.549,-1.839 -0.256,-0.213 -0.824,-0.786 -0.824,-0.833 0,-0.037 0.362,-0.37 0.403,-0.37 0.012,0 0.138,0.118 0.28,0.264 0.851,0.872 1.815,1.476 2.943,1.848 1.398,0.461 2.89,0.489 4.292,0.077 1.224,-0.356 2.451,-1.106 3.273,-1.998 0.097,-0.104 0.19,-0.191 0.205,-0.191 0.016,0 0.065,0.033 0.11,0.075 0.044,0.041 0.132,0.116 0.191,0.169 0.061,0.052 0.111,0.107 0.111,0.122 0.002,0.043 -0.617,0.657 -0.896,0.89 C 4.343,-0.79 2.935,-0.193 1.385,-0.028 1.05,0.008 0.322,0.023 0,0" /></g><g
           transform="translate(37.0693,21.1396)"
           id="g44"><path
             id="path46"
             style="fill:#000000;fill-opacity:1;fill-rule:nonzero;stroke:none"
             d="m 0,0 c 0.557,-0.062 0.966,-0.334 1.216,-0.809 0.196,-0.37 0.273,-0.724 0.273,-1.236 0,-0.518 -0.071,-0.847 -0.263,-1.221 C 1.143,-3.427 1.094,-3.49 0.95,-3.634 0.753,-3.831 0.596,-3.933 0.373,-4.002 -0.06,-4.14 -0.49,-4.106 -0.878,-3.905 c -0.322,0.167 -0.499,0.35 -0.671,0.7 -0.184,0.372 -0.256,0.759 -0.239,1.286 0.016,0.455 0.08,0.752 0.233,1.057 0.254,0.508 0.708,0.819 1.264,0.868 0.043,0.004 0.088,0.008 0.098,0.01 C -0.182,0.017 -0.095,0.01 0,0 M -0.688,1.387 C -1.535,1.265 -2.211,0.885 -2.676,0.269 c -0.403,-0.537 -0.613,-1.163 -0.671,-2.003 -0.068,-0.995 0.167,-1.949 0.63,-2.569 0.272,-0.362 0.72,-0.734 1.084,-0.898 0.598,-0.274 1.371,-0.362 2.118,-0.244 1.614,0.254 2.57,1.526 2.57,3.42 0,1.11 -0.307,1.959 -0.935,2.587 C 1.707,0.975 1.245,1.217 0.623,1.349 0.419,1.391 0.328,1.398 -0.058,1.404 c -0.31,0.006 -0.503,0 -0.63,-0.017" /></g><g
           transform="translate(16.0771,19.0947)"
           id="g48"><path
             id="path50"
             style="fill:#000000;fill-opacity:1;fill-rule:nonzero;stroke:none"
             d="m 0,0 v -3.304 h 2.327 2.327 v 0.707 0.707 h -1.53 c -1.272,0 -1.532,0.004 -1.551,0.028 -0.016,0.017 -0.022,0.194 -0.018,0.604 l 0.006,0.58 1.393,0.006 1.39,0.004 V 0.029 0.727 H 2.969 C 1.829,0.727 1.592,0.73 1.573,0.754 1.557,0.771 1.551,0.942 1.555,1.339 L 1.561,1.899 3.08,1.905 4.596,1.909 V 2.606 3.304 H 2.298 0 Z" /></g><g
           transform="translate(21.5518,20.1475)"
           id="g52"><path
             id="path54"
             style="fill:#000000;fill-opacity:1;fill-rule:nonzero;stroke:none"
             d="M 0,0 0.006,-2.254 0.05,-2.448 C 0.18,-3.021 0.384,-3.397 0.76,-3.752 1.295,-4.26 2.024,-4.5 2.922,-4.467 c 1.331,0.048 2.264,0.717 2.57,1.841 0.105,0.384 0.107,0.426 0.107,2.742 V 2.251 H 4.823 4.049 L 4.042,0.145 C 4.036,-1.719 4.032,-1.979 4.002,-2.091 3.9,-2.508 3.71,-2.771 3.397,-2.925 3.184,-3.029 3.006,-3.064 2.738,-3.053 2.575,-3.047 2.488,-3.031 2.37,-2.992 2.015,-2.872 1.813,-2.681 1.669,-2.326 1.553,-2.039 1.559,-2.134 1.551,0.154 L 1.543,2.251 H 0.768 -0.008 Z" /></g><g
           transform="translate(30.8643,20.9844)"
           id="g56"><path
             id="path58"
             style="fill:#000000;fill-opacity:1;fill-rule:nonzero;stroke:none"
             d="M 0,0 C 0.149,-0.023 0.333,-0.101 0.431,-0.183 0.514,-0.252 0.606,-0.447 0.626,-0.591 0.679,-1.004 0.49,-1.297 0.104,-1.397 c -0.127,-0.034 -1.328,-0.048 -1.365,-0.018 -0.025,0.021 -0.029,0.13 -0.029,0.718 0,0.379 0.006,0.697 0.014,0.703 C -1.257,0.027 -0.149,0.021 0,0 m -2.841,-1.89 v -3.303 h 0.776 0.775 l 0.004,1.177 0.006,1.177 0.359,0.004 c 0.197,0.004 0.368,0 0.379,-0.01 0.01,-0.008 0.293,-0.506 0.627,-1.108 0.334,-0.603 0.629,-1.128 0.653,-1.167 l 0.047,-0.073 h 0.873 c 0.752,0 0.872,0.004 0.872,0.029 0,0.015 -0.321,0.608 -0.718,1.317 -0.393,0.709 -0.716,1.293 -0.716,1.296 0,0.004 0.059,0.047 0.133,0.096 0.64,0.424 0.972,1.024 0.972,1.761 0,0.597 -0.2,1.074 -0.617,1.473 C 1.334,1.018 1.086,1.166 0.754,1.277 0.36,1.407 0.447,1.403 -1.274,1.409 l -1.567,0.007 z" /></g><g
           transform="translate(43.7813,20.9609)"
           id="g60"><path
             id="path62"
             style="fill:#000000;fill-opacity:1;fill-rule:nonzero;stroke:none"
             d="M 0,0 C 0.144,-0.043 0.332,-0.147 0.39,-0.217 0.417,-0.25 0.468,-0.333 0.5,-0.403 0.551,-0.51 0.561,-0.558 0.566,-0.715 0.586,-1.155 0.392,-1.42 -0.016,-1.518 -0.175,-1.554 -1.231,-1.56 -1.269,-1.523 c -0.016,0.017 -0.022,0.217 -0.022,0.781 0,0.419 0.006,0.765 0.015,0.773 0.007,0.008 0.275,0.012 0.595,0.006 C -0.236,0.031 -0.075,0.021 0,0 M -2.843,-1.866 V -5.17 h 0.776 0.776 l 0.004,1.101 0.006,1.098 0.726,0.012 c 0.625,0.012 0.753,0.018 0.912,0.053 0.973,0.205 1.584,0.802 1.747,1.709 0.039,0.215 0.035,0.744 -0.007,0.949 C 2.017,0.126 1.883,0.411 1.674,0.655 1.308,1.077 0.877,1.31 0.27,1.409 0.126,1.433 -0.171,1.437 -1.373,1.437 h -1.47 z" /></g><g
           transform="translate(49.0449,19.3857)"
           id="g64"><path
             id="path66"
             style="fill:#000000;fill-opacity:1;fill-rule:nonzero;stroke:none"
             d="M 0,0 C 0.184,-0.479 0.339,-0.888 0.343,-0.905 0.353,-0.938 0.31,-0.94 -0.346,-0.94 c -0.385,0 -0.704,0.007 -0.71,0.015 -0.006,0.01 0.142,0.419 0.328,0.907 0.189,0.489 0.345,0.904 0.351,0.919 0.01,0.025 0.012,0.025 0.027,0 C -0.342,0.886 -0.183,0.48 0,0 M -1.201,2.969 C -1.211,2.943 -1.808,1.471 -2.529,-0.307 -3.251,-2.081 -3.84,-3.549 -3.84,-3.563 c 0,-0.03 0.089,-0.032 0.874,-0.028 l 0.875,0.006 0.231,0.599 c 0.126,0.329 0.236,0.606 0.246,0.616 0.008,0.008 0.578,0.014 1.266,0.012 l 1.249,-0.006 0.235,-0.611 0.235,-0.61 0.886,-0.006 c 0.673,-0.004 0.885,0.002 0.885,0.02 0,0.028 -2.638,6.528 -2.663,6.561 -0.014,0.018 -0.206,0.023 -0.84,0.023 h -0.823 z" /></g><g
           transform="translate(30.8604,11.7275)"
           id="g68"><path
             id="path70"
             style="fill:#000000;fill-opacity:1;fill-rule:nonzero;stroke:none"
             d="m 0,0 0.006,-2.128 h 1.503 1.503 l 0.006,0.461 0.003,0.459 H 2.044 c -0.807,0 -0.982,0.004 -0.998,0.027 -0.016,0.018 -0.022,0.134 -0.018,0.372 l 0.006,0.347 0.888,0.006 0.887,0.004 V 0.014 0.479 H 1.937 C 1.222,0.479 1.062,0.482 1.046,0.506 1.03,0.522 1.024,0.634 1.028,0.858 L 1.034,1.186 2,1.191 2.964,1.195 V 1.66 2.126 H 1.479 -0.004 Z" /></g><g
           transform="translate(27.3604,11.7275)"
           id="g72"><path
             id="path74"
             style="fill:#000000;fill-opacity:1;fill-rule:nonzero;stroke:none"
             d="m 0,0 0.006,-2.128 h 1.019 0.003 l 0.006,1.666 0.888,0.006 0.886,0.004 V 0.014 0.479 H 1.937 C 1.222,0.479 1.063,0.482 1.045,0.506 1.03,0.522 1.024,0.634 1.028,0.858 L 1.034,1.186 2,1.191 2.963,1.195 V 1.66 2.126 H 1.479 -0.004 Z" /></g><g
           transform="translate(38.1582,11.7275)"
           id="g76"><path
             id="path78"
             style="fill:#000000;fill-opacity:1;fill-rule:nonzero;stroke:none"
             d="m 0,0 0.006,-2.128 h 1.503 1.503 l 0.006,0.461 0.003,0.459 H 2.044 c -0.807,0 -0.981,0.004 -0.998,0.027 -0.016,0.018 -0.022,0.134 -0.018,0.372 l 0.006,0.347 0.888,0.006 0.887,0.004 V 0.014 0.479 H 1.937 C 1.222,0.479 1.063,0.482 1.046,0.506 1.03,0.522 1.024,0.634 1.028,0.858 L 1.034,1.186 2,1.191 2.964,1.195 V 1.66 2.126 H 1.48 -0.004 Z" /></g><g
           transform="translate(47.4121,13.876)"
           id="g80"><path
             id="path82"
             style="fill:#000000;fill-opacity:1;fill-rule:nonzero;stroke:none"
             d="m 0,0 c -0.46,-0.053 -0.929,-0.279 -1.251,-0.606 -0.275,-0.278 -0.446,-0.587 -0.549,-0.998 -0.046,-0.189 -0.05,-0.239 -0.05,-0.593 -0.054,-0.631 0.288,-1.148 0.599,-1.573 0.2,-0.199 0.354,-0.309 0.586,-0.417 0.427,-0.201 0.089,0.286 0.63,0.401 -0.861,0.597 0,0 -0.455,0.654 -0.126,0.122 -0.272,0.405 -0.315,0.605 -0.037,0.18 -0.037,0.519 0.002,0.694 0.118,0.538 0.574,0.924 1.092,0.924 0.173,0 0.328,-0.034 0.484,-0.111 0.199,-0.094 0.309,-0.209 0.414,-0.429 0.046,-0.097 0.093,-0.177 0.103,-0.177 0.012,0 0.225,0.061 0.475,0.134 0.452,0.132 0.456,0.134 0.462,0.188 C 2.234,-1.23 2.15,-1.01 2.052,-0.843 1.957,-0.68 1.701,-0.411 1.544,-0.305 1.169,-0.049 0.584,0.065 0,0" /></g><g
           transform="translate(47.4121,9.5068)"
           id="g84"><path
             id="path86"
             style="fill:#000000;fill-opacity:1;fill-rule:nonzero;stroke:none"
             d="m 0,0 c -0.46,0.052 -0.929,0.279 -1.251,0.606 -0.275,0.278 -0.446,0.587 -0.549,0.998 -0.046,0.188 -0.05,0.239 -0.05,0.593 -0.054,0.631 0.288,1.148 0.599,1.572 0.2,0.2 0.354,0.31 0.586,0.418 0.427,0.2 -0.227,-0.409 0.314,-0.523 C -1.403,2.927 0.099,3.8 -0.49,3.131 -0.616,3.009 -0.762,2.727 -0.805,2.526 -0.842,2.347 -0.842,2.008 -0.803,1.833 -0.685,1.294 -0.229,0.908 0.289,0.908 0.462,0.908 0.617,0.943 0.773,1.02 0.972,1.114 1.082,1.229 1.187,1.449 1.233,1.546 1.28,1.626 1.29,1.626 1.302,1.626 1.515,1.565 1.765,1.492 2.217,1.36 2.221,1.358 2.227,1.304 2.234,1.23 2.15,1.01 2.052,0.843 1.957,0.68 1.701,0.41 1.544,0.304 1.169,0.048 0.584,-0.066 0,0" /></g><g
           transform="translate(50.1289,11.7275)"
           id="g88"><path
             id="path90"
             style="fill:#000000;fill-opacity:1;fill-rule:nonzero;stroke:none"
             d="m 0,0 0.006,-2.128 h 1.503 1.503 l 0.006,0.461 0.003,0.459 H 2.044 c -0.807,0 -0.981,0.004 -0.998,0.027 -0.016,0.018 -0.022,0.134 -0.018,0.372 l 0.006,0.347 0.888,0.006 0.887,0.004 V 0.014 0.479 H 1.937 C 1.222,0.479 1.063,0.482 1.046,0.506 1.03,0.522 1.024,0.634 1.028,0.858 L 1.034,1.186 2,1.191 2.964,1.195 V 1.66 2.126 H 1.48 -0.004 Z" /></g><g
           transform="translate(16.1904,13.876)"
           id="g92"><path
             id="path94"
             style="fill:#000000;fill-opacity:1;fill-rule:nonzero;stroke:none"
             d="m 0,0 c -0.456,-0.052 -0.921,-0.276 -1.241,-0.602 -0.273,-0.275 -0.443,-0.583 -0.545,-0.99 -0.046,-0.186 -0.049,-0.236 -0.049,-0.588 -0.054,-0.626 0.286,-1.138 0.594,-1.559 0.198,-0.199 0.35,-0.308 0.581,-0.415 0.423,-0.199 0.088,0.284 0.625,0.397 -0.854,0.593 0,0 -0.452,0.651 -0.125,0.121 -0.269,0.401 -0.311,0.599 -0.037,0.179 -0.037,0.516 0.002,0.689 0.117,0.534 0.569,0.917 1.083,0.917 0.171,0 0.325,-0.036 0.481,-0.11 0.196,-0.094 0.306,-0.208 0.41,-0.426 0.046,-0.097 0.092,-0.176 0.101,-0.176 0.012,0 0.224,0.059 0.472,0.133 0.448,0.13 0.452,0.132 0.458,0.186 0.007,0.073 -0.075,0.292 -0.173,0.458 C 1.941,-0.675 1.687,-0.407 1.532,-0.302 1.16,-0.048 0.579,0.065 0,0" /></g><g
           transform="translate(16.1904,9.541)"
           id="g96"><path
             id="path98"
             style="fill:#000000;fill-opacity:1;fill-rule:nonzero;stroke:none"
             d="m 0,0 c -0.456,0.052 -0.921,0.277 -1.241,0.602 -0.273,0.275 -0.443,0.583 -0.545,0.99 -0.046,0.186 -0.049,0.236 -0.049,0.589 -0.054,0.625 0.286,1.137 0.594,1.558 0.198,0.199 0.35,0.308 0.581,0.416 C -0.237,4.353 -0.885,3.749 -0.348,3.636 -1.393,2.904 0.098,3.771 -0.487,3.107 -0.612,2.986 -0.756,2.705 -0.798,2.507 -0.835,2.328 -0.835,1.992 -0.796,1.819 -0.679,1.284 -0.227,0.901 0.287,0.901 c 0.171,0 0.325,0.036 0.481,0.111 0.196,0.093 0.306,0.207 0.41,0.426 C 1.224,1.534 1.27,1.613 1.279,1.613 1.291,1.613 1.503,1.554 1.751,1.48 2.199,1.35 2.203,1.348 2.209,1.294 2.216,1.221 2.134,1.002 2.036,0.837 1.941,0.675 1.687,0.407 1.532,0.302 1.16,0.048 0.579,-0.065 0,0" /></g><g
           transform="translate(23.4136,11.7295)"
           id="g100"><path
             id="path102"
             style="fill:#000000;fill-opacity:1;fill-rule:nonzero;stroke:none"
             d="m 0,0 v -2.139 h 0.502 0.502 l 0.003,0.763 0.004,0.762 V 0.19 c 0.472,-0.78 1.04,-1.594 1.459,-2.329 h 0.443 c 0.487,0 0.565,0.003 0.565,0.019 0,0.011 -0.208,0.394 -0.465,0.853 C 2.758,-0.808 2.549,-0.43 2.549,-0.428 2.037,0.427 1.526,1.281 1.015,2.136 L 0,2.141 Z" /></g><g
           transform="translate(35.7676,7.7275)"
           id="g104"><path
             id="path106"
             style="fill:#000000;fill-opacity:1;fill-rule:nonzero;stroke:none"
             d="m 0,0 c -0.459,-0.053 -0.929,-0.279 -1.25,-0.606 -0.275,-0.278 -0.446,-0.587 -0.549,-0.998 -0.047,-0.189 -0.051,-0.239 -0.051,-0.593 0,-0.355 0.004,-0.406 0.051,-0.591 0.105,-0.417 0.258,-0.689 0.549,-0.982 0.199,-0.199 0.353,-0.309 0.585,-0.417 0.427,-0.201 1.052,-0.256 1.593,-0.142 0.453,0.095 0.848,0.323 1.194,0.689 l 0.167,0.179 v 0.732 0.735 H 1.164 0.039 v -0.407 -0.407 h 0.627 c 0.461,0 0.632,-0.005 0.649,-0.023 0.014,-0.014 0.024,-0.068 0.024,-0.124 0,-0.097 -0.004,-0.105 -0.11,-0.199 -0.292,-0.268 -0.775,-0.376 -1.19,-0.264 -0.178,0.046 -0.417,0.176 -0.529,0.286 -0.126,0.122 -0.272,0.405 -0.315,0.605 -0.036,0.18 -0.036,0.519 0.002,0.694 0.118,0.538 0.574,0.924 1.092,0.924 0.173,0 0.328,-0.034 0.485,-0.111 0.198,-0.094 0.309,-0.209 0.413,-0.429 0.046,-0.097 0.093,-0.177 0.103,-0.177 0.012,0 0.225,0.061 0.476,0.134 0.451,0.132 0.455,0.134 0.461,0.188 C 2.234,-1.23 2.151,-1.01 2.052,-0.843 1.957,-0.68 1.701,-0.411 1.544,-0.305 1.17,-0.049 0.584,0.065 0,0" /></g><g
           transform="translate(22.6782,5.54)"
           id="g108"><path
             id="path110"
             style="fill:#000000;fill-opacity:1;fill-rule:nonzero;stroke:none"
             d="m 0,0 v -2.132 h 1.503 1.503 v 0.465 0.465 H 2.03 c -0.733,0 -0.981,0.006 -0.998,0.023 -0.018,0.018 -0.024,0.415 -0.024,1.667 V 2.131 H 0.504 L 0,2.131 Z" /></g><g
           transform="translate(26.0913,5.54)"
           id="g112"><path
             id="path114"
             style="fill:#000000;fill-opacity:1;fill-rule:nonzero;stroke:none"
             d="m 0,0 v -2.132 h 1.503 1.503 v 0.465 0.465 H 2.028 c -0.806,0 -0.981,0.004 -0.998,0.027 -0.016,0.018 -0.022,0.134 -0.018,0.372 l 0.006,0.347 0.888,0.006 0.886,0.004 V 0.02 0.484 H 1.922 C 1.206,0.484 1.047,0.488 1.03,0.512 1.014,0.528 1.008,0.64 1.012,0.864 L 1.018,1.191 1.984,1.197 2.948,1.201 V 1.666 2.131 H 1.474 L 0,2.131 Z" /></g><g
           transform="translate(31.9551,5.6855)"
           id="g116"><path
             id="path118"
             style="fill:#000000;fill-opacity:1;fill-rule:nonzero;stroke:none"
             d="m 0,0 c 0.111,-0.287 0.196,-0.529 0.192,-0.537 -0.011,-0.02 -0.834,-0.02 -0.847,0 -0.006,0.012 0.225,0.64 0.407,1.108 C -0.232,0.61 -0.24,0.627 0,0 m -0.781,1.943 c -0.01,-0.025 -0.394,-0.97 -0.853,-2.102 -0.46,-1.132 -0.836,-2.071 -0.836,-2.087 0,-0.027 0.064,-0.031 0.562,-0.031 0.545,0 0.563,0.002 0.582,0.039 0.012,0.022 0.08,0.189 0.149,0.374 0.071,0.183 0.136,0.344 0.146,0.358 0.015,0.018 0.2,0.023 0.802,0.023 0.75,0 0.784,-10e-4 0.801,-0.037 0.012,-0.019 0.08,-0.188 0.15,-0.372 0.072,-0.186 0.137,-0.348 0.149,-0.36 0.014,-0.019 0.153,-0.025 0.578,-0.025 H 2.01 v 0.043 C 2.01,-2.192 0.354,1.914 0.316,1.963 0.303,1.98 0.169,1.985 -0.232,1.985 h -0.532 z" /></g><g
           transform="translate(38.4502,6.1943)"
           id="g120"><path
             id="path122"
             style="fill:#000000;fill-opacity:1;fill-rule:nonzero;stroke:none"
             d="m 0,0 c 0.006,-1.461 0.006,-1.48 0.048,-1.643 0.151,-0.57 0.574,-0.986 1.158,-1.143 0.234,-0.065 0.803,-0.075 1.057,-0.024 0.487,0.101 0.884,0.367 1.105,0.741 0.088,0.145 0.183,0.417 0.212,0.6 0.014,0.08 0.021,0.646 0.021,1.537 V 1.477 H 3.097 2.595 L 2.587,0.107 C 2.581,-1.368 2.583,-1.339 2.479,-1.542 2.288,-1.914 1.806,-2.038 1.4,-1.819 1.249,-1.738 1.153,-1.625 1.076,-1.432 L 1.031,-1.323 1.025,0.078 1.02,1.477 H 0.506 -0.008 Z" /></g><g
           transform="translate(42.54,5.5459)"
           id="g124"><path
             id="path126"
             style="fill:#000000;fill-opacity:1;fill-rule:nonzero;stroke:none"
             d="m 0,0 0.006,-2.128 h 1.503 1.503 l 0.006,0.461 0.003,0.459 H 2.044 c -0.807,0 -0.982,0.004 -0.999,0.027 -0.016,0.018 -0.022,0.134 -0.018,0.372 l 0.006,0.347 0.889,0.006 0.886,0.004 V 0.014 0.479 H 1.937 C 1.222,0.479 1.062,0.482 1.045,0.506 1.029,0.522 1.023,0.634 1.027,0.858 L 1.033,1.186 1.999,1.191 2.963,1.195 V 1.66 2.125 H 1.479 -0.004 Z" /></g><g
           transform="translate(20.9868,12.9922)"
           id="g128"><path
             id="path130"
             style="fill:#000000;fill-opacity:1;fill-rule:nonzero;stroke:none"
             d="M 0,0 C 0.36,-0.039 0.625,-0.211 0.787,-0.512 0.914,-0.746 0.964,-0.971 0.964,-1.295 0.964,-1.622 0.917,-1.831 0.793,-2.067 0.739,-2.169 0.708,-2.21 0.615,-2.301 0.487,-2.426 0.385,-2.489 0.241,-2.534 c -0.28,-0.087 -0.558,-0.066 -0.809,0.061 -0.209,0.106 -0.323,0.223 -0.435,0.444 -0.119,0.235 -0.165,0.48 -0.154,0.814 0.01,0.288 0.052,0.476 0.151,0.669 0.164,0.321 0.458,0.519 0.818,0.549 0.027,0.003 0.056,0.006 0.063,0.007 C -0.118,0.011 -0.062,0.006 0,0 M -0.445,0.878 C -0.994,0.801 -1.431,0.561 -1.732,0.17 c -0.261,-0.34 -0.396,-0.735 -0.434,-1.269 -0.044,-0.629 0.108,-1.232 0.408,-1.625 0.175,-0.229 0.466,-0.464 0.701,-0.569 0.387,-0.173 0.888,-0.229 1.371,-0.155 1.044,0.161 1.663,0.967 1.663,2.166 0,0.703 -0.199,1.24 -0.605,1.637 C 1.104,0.617 0.806,0.771 0.403,0.854 0.271,0.881 0.212,0.886 -0.038,0.89 c -0.2,0.003 -0.325,0 -0.407,-0.012" /></g><g
           transform="translate(36.1494,12.9531)"
           id="g132"><path
             id="path134"
             style="fill:#000000;fill-opacity:1;fill-rule:nonzero;stroke:none"
             d="M 0,0 C 0.097,-0.015 0.216,-0.065 0.278,-0.118 0.333,-0.163 0.393,-0.29 0.405,-0.383 0.439,-0.649 0.317,-0.839 0.067,-0.904 c -0.082,-0.022 -0.859,-0.032 -0.883,-0.012 -0.016,0.014 -0.019,0.084 -0.019,0.465 0,0.245 0.004,0.451 0.009,0.455 C -0.813,0.018 -0.097,0.014 0,0 m -1.84,-1.224 v -2.138 h 0.503 0.502 l 0.003,0.762 0.003,0.762 0.232,0.003 c 0.128,0.002 0.24,0 0.246,-0.007 0.007,-0.005 0.19,-0.327 0.407,-0.718 0.215,-0.389 0.406,-0.729 0.423,-0.754 l 0.03,-0.048 h 0.564 c 0.488,0 0.566,0.003 0.566,0.018 0,0.011 -0.209,0.395 -0.465,0.854 -0.255,0.459 -0.465,0.837 -0.465,0.839 0,0.003 0.039,0.03 0.087,0.061 0.414,0.276 0.629,0.664 0.629,1.141 0,0.387 -0.129,0.695 -0.4,0.954 C 0.864,0.659 0.703,0.756 0.488,0.827 0.233,0.911 0.29,0.908 -0.825,0.912 L -1.84,0.917 Z" /></g><g
           transform="translate(26.8916,11.7314)"
           id="g136"><path
             id="path138"
             style="fill:#000000;fill-opacity:1;fill-rule:nonzero;stroke:none"
             d="M 0,0 V 2.139 H -0.502 -1.004 L -1.007,1.376 -1.011,0.614 v -0.803 c -0.472,0.78 -1.031,1.593 -1.451,2.328 h -0.451 c -0.487,0 -0.565,-0.002 -0.565,-0.019 0.731,-1.397 1.667,-2.928 2.463,-4.256 L 0,-2.141 Z" /></g><g
           transform="translate(41.6143,11.7295)"
           id="g140"><path
             id="path142"
             style="fill:#000000;fill-opacity:1;fill-rule:nonzero;stroke:none"
             d="m 0,0 v -2.139 h 0.503 0.502 l 0.003,0.763 0.003,0.762 V 0.19 c 0.472,-0.78 1.04,-1.594 1.46,-2.329 h 0.442 c 0.487,0 0.566,0.003 0.566,0.019 0,0.011 -0.209,0.394 -0.465,0.853 C 2.759,-0.808 2.549,-0.43 2.549,-0.428 2.038,0.427 1.526,1.281 1.015,2.136 L 0,2.141 Z" /></g><g
           transform="translate(45.0928,11.7314)"
           id="g144"><path
             id="path146"
             style="fill:#000000;fill-opacity:1;fill-rule:nonzero;stroke:none"
             d="M 0,0 V 2.139 H -0.503 -1.005 L -1.007,1.376 -1.011,0.614 v -0.803 c -0.472,0.78 -1.031,1.593 -1.451,2.328 h -0.451 c -0.487,0 -0.566,-0.002 -0.566,-0.019 0.732,-1.397 1.668,-2.928 2.464,-4.256 L 0,-2.141 Z" /></g><g
           transform="translate(37.998,37.4419)"
           id="g148"><path
             id="path150"
             style="fill:#000000;fill-opacity:1;fill-rule:nonzero;stroke:none"
             d="M 0,0 H -7.889 L -8.777,-2.356 H 0.801 Z" /></g><g
           transform="translate(40.2568,36.6885)"
           id="g152"><path
             id="path154"
             style="fill:#00be14;fill-opacity:1;fill-rule:nonzero;stroke:none"
             d="m 0,0 c 3.906,2.16 6.549,6.305 6.549,11.064 0,4.52 -2.384,8.486 -5.969,10.724 L -0.031,19.635 C 2.574,17.73 4.268,14.647 4.268,11.168 4.268,7.374 2.255,4.051 -0.76,2.213 Z" /></g><g
           transform="translate(27.8579,36.7134)"
           id="g156"><path
             id="path158"
             style="fill:#00be14;fill-opacity:1;fill-rule:nonzero;stroke:none"
             d="m 0,0 c -3.881,2.167 -6.504,6.299 -6.504,11.04 0,4.481 2.344,8.419 5.88,10.667 l 0.643,-2.128 c -2.582,-1.907 -4.256,-4.975 -4.256,-8.436 0,-3.801 2.021,-7.13 5.044,-8.965 z" /></g><g
           transform="translate(36.6787,49.0571)"
           id="g160"><path
             id="path162"
             style="fill:#000000;fill-opacity:1;fill-rule:nonzero;stroke:none"
             d="m 0,0 c 0.659,6.9 3.342,12.318 3.342,12.318 0,0 -0.921,0.466 -2.424,0.837 0,0 -0.983,-3.822 -1.043,-10.726 z" /></g><g
           transform="translate(36.3467,45.5308)"
           id="g164"><path
             id="path166"
             style="fill:#000000;fill-opacity:1;fill-rule:nonzero;stroke:none"
             d="m 0,0 c -1.126,9.185 0.561,16.835 0.561,16.835 -0.717,0.143 -1.533,0.253 -2.42,0.287 0,0 -0.067,-5.878 1,-12.633 z" /></g><g
           transform="translate(37.5908,38.686)"
           id="g168"><path
             id="path170"
             style="fill:#000000;fill-opacity:1;fill-rule:nonzero;stroke:none"
             d="m 0,0 c 0,0 -0.771,2.867 -1.259,6.667 0,0 -0.315,-0.004 -0.766,-0.009 l 0.01,0.098 C -3.837,13.867 -3.903,23.974 -3.903,23.974 -4.665,23.961 -5.47,23.887 -6.302,23.727 L -2.769,6.649 C -3.042,6.646 -3.327,6.643 -3.601,6.64 l -3.495,16.909 c -0.8,-0.204 -1.622,-0.491 -2.452,-0.882 0,0 3.827,-6.558 5.148,-16.036 C -4.817,6.626 -5.109,6.623 -5.126,6.623 -5.229,7.793 -6.249,11.854 -6.249,11.854 -5.854,8.443 -5.935,4.403 -7.096,0 Z" /></g></g></g></g></svg>