<?xml version="1.0" standalone="no"?>
<!DOCTYPE svg PUBLIC "-//W3C//DTD SVG 20010904//EN"
 "http://www.w3.org/TR/2001/REC-SVG-20010904/DTD/svg10.dtd">
<svg version="1.0" xmlns="http://www.w3.org/2000/svg"
 width="16.5" height="6.5" viewBox="0 0 465.000000 384.000000"
 preserveAspectRatio="xMidYMid meet">

<g transform="translate(0.000000,384.000000) scale(0.100000,-0.100000)"
fill="rgb(255, 162, 162)" stroke="none">
<path d="M45 3798 c22 -22 47 -49 55 -58 55 -61 132 -149 150 -170 12 -14 38
-43 58 -65 21 -22 69 -76 107 -120 65 -74 100 -113 171 -191 16 -17 56 -62 90
-100 227 -257 333 -376 378 -426 28 -31 74 -82 101 -113 28 -32 73 -83 101
-114 28 -31 84 -94 125 -141 41 -47 83 -94 94 -106 11 -11 43 -46 70 -78 28
-31 64 -72 80 -90 17 -18 42 -47 56 -63 27 -31 64 -72 199 -222 41 -46 91
-102 110 -123 19 -22 46 -52 60 -67 14 -15 58 -64 98 -108 39 -44 89 -100 110
-124 20 -23 46 -52 57 -63 11 -12 61 -66 110 -121 50 -55 97 -107 105 -115 15
-16 55 -59 215 -234 109 -119 118 -130 220 -241 44 -49 112 -123 151 -164 39
-42 90 -98 115 -125 24 -28 89 -96 144 -152 l101 -102 130 137 c72 75 158 165
190 200 32 35 70 76 84 91 14 15 61 66 105 115 103 113 113 124 220 241 160
175 200 218 215 234 8 8 56 60 105 115 50 55 99 109 110 121 11 11 37 40 57
63 21 24 71 80 110 124 40 44 84 93 98 108 14 15 41 45 60 67 19 21 69 77 110
123 135 150 172 191 199 222 14 16 40 45 56 63 17 18 53 59 80 90 28 32 59 67
70 78 11 12 53 59 94 106 41 47 97 110 125 141 28 31 74 82 101 114 28 31 73
82 101 113 45 50 151 169 378 426 34 38 74 83 90 100 71 78 106 117 171 191
38 44 86 98 107 120 20 22 46 51 58 65 18 21 95 109 150 170 8 9 33 36 55 58
l39 42 -3469 0 -3469 0 39 -42z"/>
</g>
</svg>
